<svg id="Layer_1" data-name="Layer 1" xmlns="http://www.w3.org/2000/svg" viewBox="0 0 144 186.43"><defs><style>.cls-1{fill:#e63935;}</style></defs><path class="cls-1" d="M178.17,272.78,210.6,306.5a6.2,6.2,0,0,0,8.78,0l33-33c9.62-8.17,26.21-7.57,27.4-11.91l-126.53,1.51C157.38,267.49,170.77,265.55,178.17,272.78Z" transform="translate(-144.21 -121.89)"/><path class="cls-1" d="M269.43,121.89H163a18.79,18.79,0,0,0-18.79,18.79V247.1A18.79,18.79,0,0,0,163,265.89H269.43a18.78,18.78,0,0,0,18.78-18.79V140.68A18.78,18.78,0,0,0,269.43,121.89ZM216.21,162.4A16.6,16.6,0,1,1,199.62,179,16.6,16.6,0,0,1,216.21,162.4Zm0,91.15c-17.2,0-31.15-14.71-31.15-31.92s13.95-22.21,31.15-22.21,31.15,5,31.15,22.21S233.42,253.55,216.21,253.55Z" transform="translate(-144.21 -121.89)"/></svg>